<svg width="74" height="80" viewBox="0 0 74 80" fill="none" xmlns="http://www.w3.org/2000/svg">
<g filter="url(#filter0_i_278_424)">
<path d="M72.954 64.8679C70.0256 47.5639 49.2608 41.8846 46.5099 41.2634C40.7422 45.7889 32.5776 45.7889 26.8099 41.2634C24.0592 41.8849 3.73789 47.475 0.809514 64.8679C-0.698963 72.1448 -0.25516 78.3563 3.47183 79.5987C5.6903 80.3086 9.32874 79.421 13.2334 78.1787C13.3219 78.1787 13.3219 78.1787 13.411 78.0902H13.4996C15.8957 77.2917 17.5819 75.0732 17.5819 72.4995V72.2333C17.5819 70.0149 16.3395 68.0626 14.5649 67.0865C17.6698 57.858 26.4551 51.291 36.8367 51.291C47.1305 51.291 55.9155 57.9464 59.1988 67.1752C57.4242 68.2399 56.1819 70.1036 56.1819 72.3221V72.5882C56.1819 75.2506 57.9565 77.469 60.3526 78.2675C64.3457 79.4213 67.8957 80.3974 70.0249 79.6875C73.8404 78.5343 74.4619 72.145 72.9533 64.8681L72.954 64.8679Z" fill="#FC4E36"/>
<path d="M56.1824 20.2324C56.1824 31.4065 47.5611 40.4648 36.9261 40.4648C26.2912 40.4648 17.6698 31.4065 17.6698 20.2324C17.6698 9.05831 26.2911 0 36.9261 0C47.5609 0 56.1824 9.05831 56.1824 20.2324Z" fill="#FC4E36"/>
<path d="M42.9604 71.4346C43.5819 72.4992 43.9366 73.653 43.9366 74.9838C43.9366 76.5808 43.4042 78.0007 42.5166 79.1545C47.3974 78.8883 51.479 78.2669 54.9397 77.4683C55.0282 76.6698 55.1173 75.7821 55.1173 74.8952C55.1173 70.5469 53.6089 66.6428 51.1243 63.4482L42.9604 71.4346Z" fill="#FC4E36"/>
<path d="M30.7144 71.4346L22.6391 63.5369C20.066 66.643 18.5568 70.6361 18.5568 74.9838C18.5568 75.8715 18.6453 76.7584 18.7344 77.5569C22.1952 78.3554 26.2775 78.8878 31.1575 79.1539C30.2699 78.0001 29.7375 76.4916 29.7375 74.9832C29.7382 73.653 30.0935 72.4107 30.7143 71.4344L30.7144 71.4346Z" fill="#FC4E36"/>
<path d="M36.8374 71.4346C34.8852 71.4346 33.2882 73.0315 33.2882 74.9838C33.2882 76.936 34.8852 78.533 36.8374 78.533C38.7897 78.533 40.3867 76.936 40.3867 74.9838C40.3867 73.0315 38.7897 71.4346 36.8374 71.4346Z" fill="#FC4E36"/>
<path d="M36.8374 56.7042C32.3119 56.7042 28.2297 58.3011 25.0352 61.0525L33.1991 68.9503C34.2638 68.3288 35.5062 67.9741 36.8376 67.9741C38.1684 67.9741 39.4999 68.3288 40.5646 69.0388L48.7285 61.141C45.4454 58.3903 41.3632 56.7041 36.8377 56.7041L36.8374 56.7042Z" fill="#FC4E36"/>
</g>
<defs>
<filter id="filter0_i_278_424" x="0" y="0" width="73.7128" height="83.9282" filterUnits="userSpaceOnUse" color-interpolation-filters="sRGB">
<feFlood flood-opacity="0" result="BackgroundImageFix"/>
<feBlend mode="normal" in="SourceGraphic" in2="BackgroundImageFix" result="shape"/>
<feColorMatrix in="SourceAlpha" type="matrix" values="0 0 0 0 0 0 0 0 0 0 0 0 0 0 0 0 0 0 127 0" result="hardAlpha"/>
<feOffset dy="4"/>
<feGaussianBlur stdDeviation="2"/>
<feComposite in2="hardAlpha" operator="arithmetic" k2="-1" k3="1"/>
<feColorMatrix type="matrix" values="0 0 0 0 0 0 0 0 0 0 0 0 0 0 0 0 0 0 0.25 0"/>
<feBlend mode="normal" in2="shape" result="effect1_innerShadow_278_424"/>
</filter>
</defs>
</svg>
