<svg width="74" height="81" viewBox="0 0 74 81" fill="none" xmlns="http://www.w3.org/2000/svg">
<g filter="url(#filter0_i_278_417)">
<path d="M72.954 65.6582C70.0256 48.3542 49.2608 42.6749 46.5099 42.0537C40.7422 46.5792 32.5776 46.5792 26.8099 42.0537C24.0592 42.6752 3.73789 48.2653 0.809514 65.6582C-0.698963 72.9351 -0.25516 79.1466 3.47183 80.3889C5.6903 81.0989 9.32874 80.2113 13.2334 78.969C13.3219 78.969 13.3219 78.969 13.411 78.8805H13.4996C15.8957 78.082 17.5819 75.8635 17.5819 73.2898V73.0236C17.5819 70.8051 16.3395 68.8529 14.5649 67.8768C17.6698 58.6483 26.4551 52.0813 36.8367 52.0813C47.1305 52.0813 55.9155 58.7367 59.1988 67.9655C57.4242 69.0302 56.1819 70.8939 56.1819 73.1124V73.3785C56.1819 76.0408 57.9565 78.2593 60.3526 79.0578C64.3457 80.2116 67.8957 81.1877 70.0249 80.4778C73.8404 79.3246 74.4619 72.9353 72.9533 65.6584L72.954 65.6582Z" fill="#5C5C5C"/>
<path d="M56.1824 21.0227C56.1824 32.1968 47.5611 41.2551 36.9261 41.2551C26.2913 41.2551 17.6699 32.1968 17.6699 21.0227C17.6699 9.84859 26.2911 0.790283 36.9261 0.790283C47.561 0.790283 56.1824 9.84859 56.1824 21.0227Z" fill="#5C5C5C"/>
<path d="M42.9603 72.2248C43.5818 73.2895 43.9365 74.4433 43.9365 75.7741C43.9365 77.371 43.4042 78.791 42.5165 79.9448C47.3973 79.6786 51.479 79.0571 54.9396 78.2586C55.0281 77.4601 55.1173 76.5724 55.1173 75.6855C55.1173 71.3371 53.6088 67.4331 51.1242 64.2385L42.9603 72.2248Z" fill="#5C5C5C"/>
<path d="M30.7144 72.2249L22.6391 64.3271C20.066 67.4333 18.5568 71.4264 18.5568 75.7741C18.5568 76.6618 18.6453 77.5487 18.7344 78.3472C22.1952 79.1457 26.2775 79.678 31.1575 79.9442C30.2699 78.7904 29.7375 77.2819 29.7375 75.7735C29.7382 74.4433 30.0935 73.201 30.7143 72.2247L30.7144 72.2249Z" fill="#5C5C5C"/>
<path d="M36.8374 72.2249C34.8851 72.2249 33.2881 73.8218 33.2881 75.7741C33.2881 77.7263 34.8851 79.3233 36.8374 79.3233C38.7896 79.3233 40.3866 77.7263 40.3866 75.7741C40.3866 73.8218 38.7896 72.2249 36.8374 72.2249Z" fill="#5C5C5C"/>
<path d="M36.8374 57.4944C32.3119 57.4944 28.2297 59.0914 25.0352 61.8428L33.1991 69.7405C34.2638 69.1191 35.5062 68.7644 36.8376 68.7644C38.1684 68.7644 39.4999 69.1191 40.5646 69.8291L48.7285 61.9313C45.4454 59.1806 41.3632 57.4944 36.8377 57.4944L36.8374 57.4944Z" fill="#5C5C5C"/>
</g>
<defs>
<filter id="filter0_i_278_417" x="0" y="0.790283" width="73.7127" height="83.9282" filterUnits="userSpaceOnUse" color-interpolation-filters="sRGB">
<feFlood flood-opacity="0" result="BackgroundImageFix"/>
<feBlend mode="normal" in="SourceGraphic" in2="BackgroundImageFix" result="shape"/>
<feColorMatrix in="SourceAlpha" type="matrix" values="0 0 0 0 0 0 0 0 0 0 0 0 0 0 0 0 0 0 127 0" result="hardAlpha"/>
<feOffset dy="4"/>
<feGaussianBlur stdDeviation="2"/>
<feComposite in2="hardAlpha" operator="arithmetic" k2="-1" k3="1"/>
<feColorMatrix type="matrix" values="0 0 0 0 0 0 0 0 0 0 0 0 0 0 0 0 0 0 0.25 0"/>
<feBlend mode="normal" in2="shape" result="effect1_innerShadow_278_417"/>
</filter>
</defs>
</svg>
